<svg xmlns="http://www.w3.org/2000/svg" viewBox="0 0 220.52 139.36"><defs><style>.cls-1{fill:#231f20;}</style></defs><g id="Layer_2" data-name="Layer 2"><g id="Layer_1-2" data-name="Layer 1"><path class="cls-1" d="M0,58.17V16H6.51l0,4.4a10.89,10.89,0,0,1,5-4.5,17.68,17.68,0,0,1,7-1.34,15.38,15.38,0,0,1,11.54,5,16.21,16.21,0,0,1,4.77,11.76V58.17h-6.5V31.28a10,10,0,0,0-3.16-7.46,10.59,10.59,0,0,0-7.65-3.06,10.92,10.92,0,0,0-7.75,3.06,9.85,9.85,0,0,0-3.25,7.46V58.17Z"/><path class="cls-1" d="M44.6,36.35Q44.6,26.12,50,20t14.22-6.13Q73,13.87,78.48,20t5.35,16.35q0,10.24-5.35,16.36T64.17,58.84q-8.88,0-14.22-6.13T44.6,36.35Zm6.51,0q0,7.53,3.54,12.11A11.59,11.59,0,0,0,64.21,53a11.6,11.6,0,0,0,9.57-4.58q3.54-4.58,3.54-12.11t-3.54-12a11.6,11.6,0,0,0-9.57-4.58,11.59,11.59,0,0,0-9.56,4.58Q51.11,28.78,51.11,36.31Z"/><path class="cls-1" d="M96.09,15.31V2.87h6.51V15.31h6.6v5.83h-6.6V48.79a2.94,2.94,0,0,0,2.87,2.87h3.73v6.51h-5.84a7.21,7.21,0,0,1-7.27-7.27V21.14H90.25V15.31Z"/><path class="cls-1" d="M118.69,6.51V0h6.5V6.51Zm0,51.66V14.54h6.5V58.17Z"/><path class="cls-1" d="M135.83,36.35q0-10.23,5.34-16.35t14.23-6.13A18.21,18.21,0,0,1,169.71,20q5.34,6.12,5.35,16.35t-5.35,16.36a18.21,18.21,0,0,1-14.31,6.13q-8.88,0-14.23-6.13T135.83,36.35Zm6.51,0q0,7.53,3.54,12.11a12.28,12.28,0,0,0,19.13,0q3.54-4.58,3.54-12.11t-3.54-12a12.28,12.28,0,0,0-19.13,0Q142.34,28.78,142.34,36.31Z"/><path class="cls-1" d="M185.69,58.17V16h6.51l0,4.4a10.92,10.92,0,0,1,5.06-4.5,17.66,17.66,0,0,1,7-1.34,15.4,15.4,0,0,1,11.55,5,16.21,16.21,0,0,1,4.77,11.76V58.17H214V31.28a10,10,0,0,0-3.15-7.46,10.61,10.61,0,0,0-7.66-3.06,10.92,10.92,0,0,0-7.75,3.06,9.85,9.85,0,0,0-3.25,7.46V58.17Z"/><path class="cls-1" d="M.1,87V80.52H6.6V87Zm0,51.66V95.07H6.6v43.62Z"/><path class="cls-1" d="M17.24,116.88q0-10.23,5.17-16.36A17.1,17.1,0,0,1,36.18,94.4a18.17,18.17,0,0,1,12.53,4.4,16.79,16.79,0,0,1,5.55,11.57h-6.5A10.59,10.59,0,0,0,44.22,103a11.75,11.75,0,0,0-8-2.78,10.58,10.58,0,0,0-9,4.58q-3.45,4.48-3.44,12c0,5,1.14,9.06,3.44,12.12a10.58,10.58,0,0,0,9,4.58,11.12,11.12,0,0,0,7.94-3,12,12,0,0,0,3.64-7.94h6.5a17.73,17.73,0,0,1-5.64,12.07,17.23,17.23,0,0,1-12.44,4.67,17.1,17.1,0,0,1-13.77-6.12Q17.24,127.12,17.24,116.88Z"/><path class="cls-1" d="M61.75,116.88q0-10.23,5.34-16.36T81.31,94.4q8.88,0,14.32,6.12T101,116.88q0,10.23-5.34,16.36t-14.32,6.12q-8.88,0-14.22-6.12T61.75,116.88Zm6.5,0c0,5,1.18,9.06,3.54,12.12a12.28,12.28,0,0,0,19.13,0c2.36-3.06,3.54-7.09,3.54-12.12s-1.18-9-3.54-12a12.28,12.28,0,0,0-19.13,0Q68.25,109.29,68.25,116.83Z"/><path class="cls-1" d="M111.61,138.69V96.5h6.5v4.4a10.88,10.88,0,0,1,5.05-4.49,17.5,17.5,0,0,1,7-1.34,15.42,15.42,0,0,1,11.54,5,16.23,16.23,0,0,1,4.77,11.77v26.88h-6.5V111.81a10,10,0,0,0-3.16-7.46,10.61,10.61,0,0,0-7.65-3.07,10.91,10.91,0,0,0-7.75,3.07,9.86,9.86,0,0,0-3.26,7.46v26.88Z"/><path class="cls-1" d="M158.6,87V80.52h6.51V87Zm0,51.66V95.07h6.51v43.62Z"/><path class="cls-1" d="M175.74,116.88q0-10.23,5.17-16.36a17.12,17.12,0,0,1,13.78-6.12,18.2,18.2,0,0,1,12.53,4.4,16.87,16.87,0,0,1,5.55,11.57h-6.51a10.51,10.51,0,0,0-3.54-7.36,11.71,11.71,0,0,0-8-2.78,10.6,10.6,0,0,0-9,4.58q-3.44,4.48-3.44,12c0,5,1.15,9.06,3.44,12.12a10.6,10.6,0,0,0,9,4.58,11.14,11.14,0,0,0,7.94-3,12.07,12.07,0,0,0,3.63-7.94h6.51a17.74,17.74,0,0,1-5.65,12.07,18.71,18.71,0,0,1-26.21-1.45Q175.75,127.12,175.74,116.88Z"/></g></g></svg>