<svg xmlns="http://www.w3.org/2000/svg" viewBox="0 0 49.5 49.5"><defs><style>.cls-1{fill:none;stroke:#241f20;stroke-miterlimit:10;stroke-width:2px;}</style></defs><g id="Layer_2" data-name="Layer 2"><g id="Layer_1-2" data-name="Layer 1"><rect class="cls-1" x="1" y="1" width="47.5" height="47.5" rx="7.77"/><path d="M26.36,20a4.17,4.17,0,0,1,2.39-1.5A4.22,4.22,0,0,1,34,22.16a10.86,10.86,0,0,1,.14,1.71c0,2,0,3.92,0,5.88,0,.39-.1.53-.52.52-1,0-1.92,0-2.88,0-.55,0-.55,0-.56-.58,0-2,0-3.92,0-5.88a3.85,3.85,0,0,0-.1-.83,1.74,1.74,0,0,0-2-1.43,2.06,2.06,0,0,0-1.72,1.89c0,2.08,0,4.16,0,6.24,0,.59,0,.59-.59.59-1,0-1.92,0-2.88,0-.39,0-.49-.13-.49-.51q0-4.7.06-9.4c0-.44,0-.87,0-1.31,0-.27.07-.39.36-.38H26c.26,0,.35.1.35.35S26.36,19.68,26.36,20Z"/><path d="M20.43,24.47c0,1.77,0,3.54,0,5.32,0,.35-.09.49-.47.48-1,0-2,0-3,0-.34,0-.47-.08-.47-.45q0-5.35,0-10.72c0-.32.09-.44.43-.44q1.56,0,3.12,0c.34,0,.43.13.43.45,0,1.78,0,3.57,0,5.36Z"/><path d="M16.28,15.18a2,2,0,0,1,2.17-2,2,2,0,1,1,0,4.08A2,2,0,0,1,16.28,15.18Z"/></g></g></svg>