<svg xmlns="http://www.w3.org/2000/svg" viewBox="0 0 242.72 269.98"><defs><style>.cls-1,.cls-3{fill:#164740;}.cls-2{fill:#fbeeee;}.cls-3{font-size:23.44px;font-family:Helvetica-Bold, Helvetica;font-weight:700;}</style></defs><g id="Layer_2" data-name="Layer 2"><g id="Layer_1-2" data-name="Layer 1"><path class="cls-1" d="M51.45,249.15H48.84V236.59h2.61Zm-2.4-16h2.22v2H49.05Z"/><path class="cls-1" d="M59.26,243.19a2.07,2.07,0,0,0-.35-.93,1.44,1.44,0,0,0-1.26-.57A1.68,1.68,0,0,0,56,242.91a5.08,5.08,0,0,0-.24,1.72,4.62,4.62,0,0,0,.24,1.64,1.62,1.62,0,0,0,1.63,1.16,1.43,1.43,0,0,0,1.21-.46,2.27,2.27,0,0,0,.44-1.19h2.48a4.06,4.06,0,0,1-.81,2.09,3.62,3.62,0,0,1-3.12,1.6l-.53.79.4-.08a1,1,0,0,1,.25,0,1.7,1.7,0,0,1,1.1.33,1.18,1.18,0,0,1,.41,1,1.46,1.46,0,0,1-.63,1.24,2.82,2.82,0,0,1-1.65.46,3.84,3.84,0,0,1-1-.18l-.79-.28.32-.73.67.19a2.71,2.71,0,0,0,.66.1,1,1,0,0,0,.74-.22.67.67,0,0,0,.22-.46.53.53,0,0,0-.25-.5,1,1,0,0,0-.53-.15,1.24,1.24,0,0,0-.33,0l-.38.11-.37-.34.84-1.28a3.27,3.27,0,0,1-2.66-1.33,5.36,5.36,0,0,1-1.06-3.45A5.44,5.44,0,0,1,54.35,241a4.05,4.05,0,0,1,3.22-1.33,4.79,4.79,0,0,1,2.86.79,3.58,3.58,0,0,1,1.32,2.76Z"/><path class="cls-1" d="M69.47,240.05a3.73,3.73,0,0,1,1.6,1.38,4.51,4.51,0,0,1,.74,1.92,11.47,11.47,0,0,1,.08,1.84H65.13a2.22,2.22,0,0,0,1,2,2.5,2.5,0,0,0,1.34.35,2,2,0,0,0,1.35-.43,2.13,2.13,0,0,0,.5-.64h2.48a3.11,3.11,0,0,1-.9,1.68,4.55,4.55,0,0,1-3.5,1.36,5,5,0,0,1-3.27-1.15,4.49,4.49,0,0,1-1.42-3.72A5.05,5.05,0,0,1,64,240.9a4.5,4.5,0,0,1,3.32-1.28A5.32,5.32,0,0,1,69.47,240.05Zm-3.64,2.1a2.47,2.47,0,0,0-.64,1.44h4.18a2,2,0,0,0-.65-1.47,2.12,2.12,0,0,0-1.44-.5A2,2,0,0,0,65.83,242.15Z"/><path class="cls-1" d="M78.28,239.65h.21v2.49l-.41,0h-.29a2,2,0,0,0-2,1,3.68,3.68,0,0,0-.28,1.65v4.44H73.1v-9.29h2.31v1.62a5.26,5.26,0,0,1,1-1.27,2.7,2.7,0,0,1,1.78-.57Z"/><path class="cls-1" d="M82.41,238.76H80v-2.25h2.46ZM80,239.86h2.46v9.29H80Z"/><path class="cls-1" d="M84.74,236.63h2.38v6.78l3.07-3.5h3l-3.33,3.46,3.45,5.78h-3l-2.25-4-1,1v2.92H84.74Z"/><path class="cls-1" d="M99.5,249.15V236.59h2.6v4.79H107v-4.79h2.6v12.56H107v-5.61H102.1v5.61Z"/><path class="cls-1" d="M115.6,243.5a4.26,4.26,0,0,0,1-.21.73.73,0,0,0,.52-.69.81.81,0,0,0-.4-.79,2.6,2.6,0,0,0-1.18-.22,1.52,1.52,0,0,0-1.23.43,1.7,1.7,0,0,0-.35.85h-2.34a3.57,3.57,0,0,1,.68-2,4,4,0,0,1,3.32-1.23,5.87,5.87,0,0,1,2.73.61,2.31,2.31,0,0,1,1.18,2.28v4.26c0,.3,0,.65,0,1.07a1.36,1.36,0,0,0,.15.65.82.82,0,0,0,.35.28v.36h-2.64a3.06,3.06,0,0,1-.15-.53c0-.16,0-.35-.07-.56A5,5,0,0,1,116,249a3.55,3.55,0,0,1-1.79.45,3.07,3.07,0,0,1-2.09-.72,2.57,2.57,0,0,1-.83-2,2.64,2.64,0,0,1,1.33-2.48,5.93,5.93,0,0,1,2.15-.6Zm1.48,1.14a2.92,2.92,0,0,1-.47.23,4.49,4.49,0,0,1-.65.17l-.55.1a3.69,3.69,0,0,0-1.12.33,1.11,1.11,0,0,0-.57,1,1,1,0,0,0,.35.9,1.3,1.3,0,0,0,.85.28,2.61,2.61,0,0,0,1.47-.46,2,2,0,0,0,.69-1.68Z"/><path class="cls-1" d="M121.1,241.84v-2h7.35v2l-4.56,5.28h4.72v2h-7.83v-1.89l4.6-5.42Z"/><path class="cls-1" d="M130.39,239.86h2.46v9.29h-2.46Z"/><path class="cls-1" d="M140.36,239.65h.21v2.49l-.41,0h-.29a2,2,0,0,0-2,1,3.83,3.83,0,0,0-.28,1.65v4.44h-2.44v-9.29h2.32v1.62a5,5,0,0,1,1-1.27,2.65,2.65,0,0,1,1.77-.57Z"/><path class="cls-1" d="M144.47,249.15h-2.42V236.59h2.42Z"/><path class="cls-1" d="M150.52,243.5a4.26,4.26,0,0,0,1-.21.74.74,0,0,0,.53-.69.82.82,0,0,0-.41-.79,2.56,2.56,0,0,0-1.17-.22,1.53,1.53,0,0,0-1.24.43,1.79,1.79,0,0,0-.35.85h-2.34a3.5,3.5,0,0,1,.69-2,4,4,0,0,1,3.32-1.23,5.83,5.83,0,0,1,2.72.61,2.32,2.32,0,0,1,1.19,2.28v4.26c0,.3,0,.65,0,1.07a1.27,1.27,0,0,0,.14.65.8.8,0,0,0,.36.28v.36h-2.64a2.43,2.43,0,0,1-.16-.53c0-.16-.05-.35-.07-.56a5,5,0,0,1-1.16.93,3.54,3.54,0,0,1-1.78.45,3.08,3.08,0,0,1-2.1-.72,2.57,2.57,0,0,1-.83-2,2.66,2.66,0,0,1,1.33-2.48,6,6,0,0,1,2.15-.6Zm1.49,1.14a3.39,3.39,0,0,1-.47.23,5.09,5.09,0,0,1-.66.17l-.55.1a3.69,3.69,0,0,0-1.12.33,1.11,1.11,0,0,0-.57,1,1.08,1.08,0,0,0,.35.9,1.32,1.32,0,0,0,.85.28,2.58,2.58,0,0,0,1.47-.46,2,2,0,0,0,.7-1.68Z"/><path class="cls-1" d="M164,240.4a3.05,3.05,0,0,1,.91,2.5v6.25h-2.49V243.5a2.57,2.57,0,0,0-.19-1.12,1.37,1.37,0,0,0-1.35-.72,1.69,1.69,0,0,0-1.69,1.05,3.78,3.78,0,0,0-.23,1.41v5h-2.43v-9.27h2.35v1.35a4.16,4.16,0,0,1,.88-1,3.09,3.09,0,0,1,1.89-.56A3.53,3.53,0,0,1,164,240.4Z"/><path class="cls-1" d="M167.25,239.86h2.46v9.29h-2.46Z"/><path class="cls-1" d="M172.43,250.93l.3,0a3.9,3.9,0,0,0,.69,0,1.16,1.16,0,0,0,.54-.19,1.42,1.42,0,0,0,.4-.61,1.33,1.33,0,0,0,.15-.56l-3.41-9.7h2.7l2,6.85,1.92-6.85h2.58L177.15,249a13.21,13.21,0,0,1-1.46,3.27,2.76,2.76,0,0,1-2.15.64H173l-.59,0Z"/><path class="cls-1" d="M189.51,248a5.09,5.09,0,0,1-7.14,0,5.78,5.78,0,0,1,0-7,5,5,0,0,1,7.14,0,5.74,5.74,0,0,1,0,7Zm-1.94-1.34a4.34,4.34,0,0,0,0-4.3,2.17,2.17,0,0,0-3.28,0,4.34,4.34,0,0,0,0,4.3,2.15,2.15,0,0,0,3.28,0Z"/><path class="cls-1" d="M197.59,239.65h.21v2.49l-.41,0h-.29a2,2,0,0,0-2,1,3.68,3.68,0,0,0-.28,1.65v4.44H192.4v-9.29h2.32v1.62a5,5,0,0,1,1-1.27,2.67,2.67,0,0,1,1.77-.57Z"/><path class="cls-1" d="M14.68,123.76H148a0,0,0,0,1,0,0V175a25.11,25.11,0,0,1-25.11,25.11H39.79A25.11,25.11,0,0,1,14.68,175V123.76A0,0,0,0,1,14.68,123.76Z"/><path class="cls-1" d="M159.63,147.71H3a3,3,0,0,1,0-6H159.63a3,3,0,0,1,0,6Z"/><rect class="cls-1" x="201.86" y="113.94" width="6.58" height="31.3"/><rect class="cls-1" x="190.41" y="141.41" width="29.48" height="58.11" rx="13.59"/><circle class="cls-1" cx="205.15" cy="67.85" r="37.35"/><rect class="cls-2" x="186.56" y="50.2" width="13.1" height="13.1"/><rect class="cls-2" x="186.56" y="74.27" width="13.1" height="13.1"/><rect class="cls-2" x="198.6" y="62.23" width="13.1" height="13.1"/><rect class="cls-2" x="210.63" y="50.2" width="13.1" height="13.1"/><rect class="cls-2" x="210.63" y="74.27" width="13.1" height="13.1"/><path class="cls-1" d="M144.43,85.55S166.7,49,153.64,28.1,120.56-.37,117.42,0a11,11,0,0,0-5.67,3S122.38,8.9,124,11.24s4.49,31.67-9,42.54C115.05,53.78,128.61,56.07,144.43,85.55Z"/><polygon class="cls-2" points="34.42 118.01 34.42 154.61 50.15 138.88 63.67 152.41 63.67 118.34 34.42 118.01"/><path class="cls-2" d="M138.32,40.48a8,8,0,0,0,1.66.31,1.16,1.16,0,0,0,1.23-.66,1.25,1.25,0,0,0-.19-1.38,4.7,4.7,0,0,0-1.75-1,2.85,2.85,0,0,0-2.21-.18,2.72,2.72,0,0,0-1,1L132.31,37a5.11,5.11,0,0,1,2.22-2.42c1.49-.77-1.48-9.74,1-8.75a11,11,0,0,1,4,2.58c1,1.08,6.19,11.51,5.55,13.1l-2.42,6.09c-.16.42-.36.94-.58,1.55a2,2,0,0,0-.14,1,1.62,1.62,0,0,0,.41.63l7.41,9-4.2-1.67c0-.31-7.6-9.1-7.55-9.36s.12-.53.21-.84c-.74.3-3.68,6.62-4.53,6.71-1,.1.12-6.19-.93-6.6a5.61,5.61,0,0,1-2.92-2.36,3.72,3.72,0,0,1-.16-3.43,4,4,0,0,1,3.52-2.71,11,11,0,0,1,3.75.51ZM140,43a4.36,4.36,0,0,1-.88,0A7.05,7.05,0,0,1,138,42.9l-.93-.21a7.17,7.17,0,0,0-2-.23,1.68,1.68,0,0,0-1.5,1.11,1.56,1.56,0,0,0,.05,1.51,2.4,2.4,0,0,0,1.19.93,4.61,4.61,0,0,0,2.59.27,2.86,2.86,0,0,0,2.06-2Z"/><rect class="cls-2" x="192.74" y="157.52" width="24.81" height="30.8"/><path class="cls-1" d="M192.16,158.49a10.22,10.22,0,0,0,3.18.4c1-.2.49.2,1-.2s1.08.22,1.08.22h1.18l.88-.7a9.86,9.86,0,0,0,3.05,0l1,.88,1.4.59.66-1.08,1.08.58.39-.43s.53-.45.6-.4a1.54,1.54,0,0,1,.31.25.73.73,0,0,0,.25.15l.64-.15.25-.15.43-.1h.23a1.22,1.22,0,0,1,.38.05l.08,0s.12.14.2.15.53-.11.66,0a7.19,7.19,0,0,0,1.47,0l.25-.38,1-.53.33-.17.79.27a3.7,3.7,0,0,1,.74.43c.12.15.22.1.38.38s.3.33.45.56.49.2.61.31.42,0,.42,0,.34-.28.34-.41-.4-2.13-.45-2.28.86-1.5-.74-1.6-7-.46-7.46-.41-6.24.23-7.53.59-8.4,1.11-8.4,1.11l-1.75.46v2.22"/><text class="cls-3" transform="translate(197.99 181.98)">d</text><path class="cls-1" d="M201.86,178.21a2.42,2.42,0,0,0,2.87-.9c1-1.6.08-3,2.4-4.39s1.88-2.84,1.88-2.84l1.07,4.14v4.88l-2.86,1.16-2.49,1-3.31-.71Z"/><path class="cls-1" d="M56.28,82.58c-.17-1.7-.3-3.13-.47-4.56A11.26,11.26,0,0,1,66,65.21c4.24-.44,8.49-.79,12.74-1.08C85.16,63.69,90.1,67.79,91,74.21c.23,1.67.44,3.33.69,5.26l13.72-1.35c3.52-.34,7-.8,10.57-.94A20.27,20.27,0,0,1,136.79,93.1c1.49,6.3.78,7.19-5.73,7.8-21.71,2-43.4,4.11-65.11,6.15q-23.41,2.2-46.85,4.37c-2.78.26-4.49-1.15-4.72-3.87A20.58,20.58,0,0,1,33.22,84.91ZM84.13,80.4c-.28-2.09-.38-4-.82-5.84a3.38,3.38,0,0,0-3.69-2.83c-4.56.31-9.13.66-13.67,1.18a3.2,3.2,0,0,0-3.05,3.21,61.8,61.8,0,0,0,.56,6.3Z"/><path class="cls-1" d="M29.16,217v19.75q0,14.36,0,28.73c0,3.08-1.22,4.53-3.73,4.52s-3.71-1.38-3.72-4.55q0-22.69,0-45.4v-3c-.8-.07-1.4-.18-2-.19H7.62c-3.16,0-4.57-1.13-4.62-3.63s1.35-3.77,4.69-3.79c3.79,0,7.57,0,11.35,0H236.85c.64,0,1.29,0,1.93,0,2.69.12,4,1.38,3.94,3.81-.05,2.26-1.41,3.56-3.93,3.59-3.94.05-7.89,0-11.83,0H224v3q0,22.21,0,44.43a16.26,16.26,0,0,1-.15,2.88c-.33,2-1.68,2.83-3.6,2.84a3.35,3.35,0,0,1-3.61-2.88,11.27,11.27,0,0,1-.09-2.4q0-22.45,0-44.92V217Z"/></g></g></svg>